<svg width="17" height="17" viewBox="0 0 17 17" fill="none" xmlns="http://www.w3.org/2000/svg">
<path d="M6.02051 9.56249C5.60022 9.56249 5.18938 9.43786 4.83992 9.20437C4.49047 8.97087 4.2181 8.63899 4.05726 8.2507C3.89643 7.8624 3.85435 7.43514 3.93634 7.02293C4.01833 6.61072 4.22072 6.23208 4.51791 5.93489C4.81509 5.6377 5.19373 5.43532 5.60594 5.35332C6.01815 5.27133 6.44542 5.31341 6.83371 5.47425C7.222 5.63509 7.55388 5.90745 7.78738 6.25691C8.02088 6.60636 8.14551 7.01721 8.14551 7.43749C8.14551 8.00108 7.92163 8.54158 7.52311 8.94009C7.1246 9.33861 6.58409 9.56249 6.02051 9.56249ZM1.77051 13.8125V14.5208C1.77051 14.7087 1.84514 14.8889 1.97797 15.0217C2.11081 15.1545 2.29098 15.2292 2.47884 15.2292H9.56217C9.75004 15.2292 9.9302 15.1545 10.063 15.0217C10.1959 14.8889 10.2705 14.7087 10.2705 14.5208V13.8125C10.2705 13.2489 10.0466 12.7084 9.64811 12.3099C9.2496 11.9114 8.70909 11.6875 8.14551 11.6875H3.89551C3.33192 11.6875 2.79142 11.9114 2.39291 12.3099C1.99439 12.7084 1.77051 13.2489 1.77051 13.8125ZM9.76476 10.4493C9.89759 10.5821 10.0777 10.6567 10.2655 10.6567C10.4534 10.6567 10.6335 10.5821 10.7663 10.4493C11.162 10.0538 11.4758 9.58421 11.69 9.06738C11.9041 8.55054 12.0143 7.99658 12.0143 7.43714C12.0143 6.8777 11.9041 6.32374 11.69 5.8069C11.4758 5.29006 11.162 4.82047 10.7663 4.42495C10.701 4.3573 10.6228 4.30334 10.5364 4.26621C10.45 4.22909 10.3571 4.20955 10.263 4.20873C10.1689 4.20791 10.0757 4.22584 9.98862 4.26145C9.90157 4.29707 9.82249 4.34966 9.75598 4.41617C9.68947 4.48268 9.63688 4.56177 9.60126 4.64882C9.56564 4.73587 9.54772 4.82914 9.54854 4.92319C9.54936 5.01725 9.5689 5.11019 9.60602 5.19661C9.64314 5.28303 9.69711 5.36119 9.76476 5.42653C10.0288 5.69056 10.2383 6.00401 10.3812 6.34899C10.5241 6.69398 10.5976 7.06373 10.5976 7.43714C10.5976 7.81055 10.5241 8.1803 10.3812 8.52528C10.2383 8.87027 10.0288 9.18372 9.76476 9.44774C9.63197 9.58057 9.55737 9.76071 9.55737 9.94853C9.55737 10.1364 9.63197 10.3165 9.76476 10.4493ZM12.8913 1.96987C12.8251 1.90226 12.746 1.8486 12.6587 1.81206C12.5714 1.77553 12.4777 1.75685 12.3831 1.75714C12.2884 1.75744 12.1948 1.77669 12.1078 1.81376C12.0207 1.85084 11.9419 1.90498 11.8761 1.973C11.8104 2.04102 11.7589 2.12153 11.7247 2.20979C11.6905 2.29804 11.6744 2.39224 11.6773 2.48683C11.6801 2.58143 11.7019 2.67448 11.7413 2.76052C11.7807 2.84655 11.837 2.92381 11.9068 2.98774C12.5099 3.56128 12.9902 4.25145 13.3183 5.01633C13.6465 5.78122 13.8157 6.60483 13.8157 7.43714C13.8157 8.26944 13.6465 9.09306 13.3183 9.85794C12.9902 10.6228 12.5099 11.313 11.9068 11.8865C11.837 11.9505 11.7807 12.0277 11.7413 12.1138C11.7019 12.1998 11.6801 12.2929 11.6773 12.3874C11.6744 12.482 11.6905 12.5762 11.7247 12.6645C11.7589 12.7527 11.8104 12.8333 11.8761 12.9013C11.9419 12.9693 12.0207 13.0234 12.1078 13.0605C12.1948 13.0976 12.2884 13.1168 12.3831 13.1171C12.4777 13.1174 12.5714 13.0988 12.6587 13.0622C12.746 13.0257 12.8251 12.972 12.8913 12.9044C13.6312 12.1989 14.2202 11.3506 14.6226 10.4109C15.025 9.4711 15.2325 8.45944 15.2325 7.43714C15.2325 6.41484 15.025 5.40318 14.6226 4.46342C14.2202 3.52365 13.6312 2.67535 12.8913 1.96987Z" fill="black"/>
</svg>
