<svg width="50" height="50" viewBox="0 0 50 50" fill="none" xmlns="http://www.w3.org/2000/svg">
<path d="M6.36683 15.0652C6.46409 12.94 6.79686 11.5693 7.24688 10.4058L7.25294 10.3897C7.69889 9.2058 8.39749 8.13327 9.30012 7.24678L9.31279 7.23434L9.32523 7.22167C10.2125 6.31789 11.2854 5.61997 12.4683 5.17519L12.4887 5.16739C13.6495 4.71596 15.0175 4.38443 17.1445 4.28719M6.36683 15.0652C6.26458 17.3359 6.23853 18.0398 6.23853 23.9273C6.23853 29.8162 6.26315 30.5184 6.36678 32.7897M6.36683 15.0652L6.36683 15.638M7.25478 37.4659C7.69956 38.6488 8.39748 39.7218 9.30126 40.609L9.31391 40.6214L9.32633 40.6341C10.2129 41.5367 11.2854 42.2353 12.4694 42.6813L12.4871 42.688C13.6489 43.1386 15.0176 43.4702 17.1445 43.5674M7.25478 37.4659L7.24698 37.4455C6.79555 36.2847 6.46402 34.9167 6.36678 32.7897M7.25478 37.4659L7.22812 37.3255M6.36678 32.7897L6.4016 32.9731M6.36678 32.7897L6.36678 32.2155M7.22812 37.3255L6.4016 32.9731M7.22812 37.3255C6.87709 36.3981 6.51562 35.1042 6.4016 32.9731M7.22812 37.3255C7.24043 37.358 7.25273 37.3901 7.26501 37.4218C7.71018 38.6219 8.41553 39.7085 9.33038 40.6037C10.2252 41.5184 11.3114 42.2236 12.5111 42.6687C13.4739 43.0438 14.8306 43.4357 17.1442 43.5417C19.479 43.648 20.2004 43.6696 26.0069 43.6696C31.8134 43.6696 32.5354 43.6479 34.8702 43.5417C37.1867 43.4355 38.5418 43.0414 39.5011 42.6693C40.7016 42.2244 41.7884 41.5189 42.6835 40.6037C43.5981 39.7089 44.3032 38.6227 44.7483 37.423C45.1234 36.4603 45.5153 35.1036 45.6213 32.79C45.7276 30.4552 45.7492 29.7324 45.7492 23.9273C45.7492 18.1223 45.7275 17.3988 45.6213 15.064C45.5145 12.7354 45.1169 11.3783 44.7431 10.4181C44.2543 9.15647 43.6346 8.20228 42.6819 7.24966C41.7313 6.30081 40.7796 5.6807 39.517 5.1915C38.5534 4.81474 37.1954 4.41951 34.8702 4.31295C34.668 4.30375 34.4779 4.29518 34.2955 4.28721M6.4016 32.9731C6.39838 32.9129 6.39536 32.8521 6.39254 32.7906C6.38333 32.5883 6.37476 32.398 6.36678 32.2155M17.1445 4.28719C19.4158 4.18356 20.1194 4.15894 26.0069 4.15894C31.8943 4.15894 32.5977 4.18497 34.8684 4.28721M17.1445 4.28719L17.7188 4.28719M34.8684 4.28721L34.2955 4.28721M34.8684 4.28721C36.994 4.38443 38.3648 4.71715 39.5284 5.16722L39.5445 5.17335C40.7284 5.6193 41.801 6.3179 42.6874 7.22053L42.6997 7.23307L42.7123 7.24538C43.6151 8.13195 44.3136 9.20478 44.7592 10.3891L44.7668 10.4091C45.2183 11.5699 45.5498 12.9379 45.647 15.0649M17.7188 4.28719L34.2955 4.28721M17.7188 4.28719C19.642 4.20309 20.705 4.18499 26.0069 4.18499C31.3092 4.18499 32.372 4.20309 34.2955 4.28721M17.7188 4.28719C17.5362 4.29517 17.346 4.30374 17.1436 4.31295C14.827 4.41912 13.472 4.81323 12.5126 5.18534C11.3078 5.63199 10.2173 6.34109 9.32026 7.26128C8.37653 8.2089 7.75881 9.15853 7.27116 10.417C6.89438 11.3807 6.49908 12.7393 6.39252 15.0646C6.38333 15.2663 6.37478 15.456 6.36683 15.638M45.647 32.7897C45.5498 34.9166 45.2183 36.2853 44.7676 37.4472L44.7609 37.4649C44.3149 38.6488 43.6163 39.7214 42.7137 40.6078L42.701 40.6203L42.6886 40.633C41.8014 41.5367 40.7284 42.2347 39.5455 42.6794L39.5251 42.6872C38.3643 43.1387 36.9963 43.4702 34.8693 43.5674M6.36678 32.2155C6.28268 30.2922 6.26458 29.2292 6.26458 23.9273C6.26458 18.6238 6.28267 17.5623 6.36683 15.638M6.36678 32.2155L6.36683 15.638M22.491 32.4156C23.6057 32.8773 24.8004 33.1149 26.0069 33.1149C28.4436 33.1149 30.7805 32.1469 32.5035 30.4239C34.2265 28.7009 35.1945 26.364 35.1945 23.9273C35.1945 21.4906 34.2265 19.1537 32.5035 17.4307C30.7805 15.7077 28.4436 14.7397 26.0069 14.7397C24.8004 14.7397 23.6057 14.9773 22.491 15.4391C21.3763 15.9008 20.3634 16.5775 19.5103 17.4307C18.6571 18.2838 17.9804 19.2967 17.5187 20.4114C17.057 21.5261 16.8193 22.7208 16.8193 23.9273C16.8193 25.1338 17.057 26.3286 17.5187 27.4433C17.9804 28.558 18.6571 29.5708 19.5103 30.4239C20.3634 31.2771 21.3763 31.9538 22.491 32.4156ZM19.4898 17.4102C21.2183 15.6818 23.5625 14.7108 26.0069 14.7108C28.4513 14.7108 30.7956 15.6818 32.524 17.4102C34.2524 19.1387 35.2235 21.4829 35.2235 23.9273C35.2235 26.3717 34.2524 28.716 32.524 30.4444C30.7956 32.1728 28.4513 33.1439 26.0069 33.1439C23.5625 33.1439 21.2183 32.1728 19.4898 30.4444C17.7614 28.716 16.7904 26.3717 16.7904 23.9273C16.7904 21.4829 17.7614 19.1387 19.4898 17.4102ZM40.4133 12.5649C40.4133 13.2646 40.1353 13.9355 39.6406 14.4302C39.1459 14.925 38.4749 15.2029 37.7753 15.2029C37.0757 15.2029 36.4047 14.925 35.91 14.4302C35.4153 13.9355 35.1373 13.2646 35.1373 12.5649C35.1373 11.8653 35.4153 11.1943 35.91 10.6996C36.4047 10.2049 37.0757 9.92697 37.7753 9.92697C38.4749 9.92697 39.1459 10.2049 39.6406 10.6996C40.1353 11.1943 40.4133 11.8653 40.4133 12.5649Z" stroke="black" stroke-width="2.07951" stroke-linejoin="round"/>
</svg>
