<svg width="13" height="13" viewBox="0 0 13 13" fill="none" xmlns="http://www.w3.org/2000/svg">
<rect width="13" height="13" rx="6.5" fill="url(#paint0_linear_283_14)"/>
<path d="M5.14605 6.5C5.14605 5.75214 5.75214 5.14573 6.5 5.14573C7.24786 5.14573 7.85427 5.75214 7.85427 6.5C7.85427 7.24786 7.24786 7.85427 6.5 7.85427C5.75214 7.85427 5.14605 7.24786 5.14605 6.5ZM4.41395 6.5C4.41395 7.65212 5.34787 8.58605 6.5 8.58605C7.65212 8.58605 8.58604 7.65212 8.58604 6.5C8.58604 5.34788 7.65212 4.41396 6.5 4.41396C5.34787 4.41396 4.41395 5.34788 4.41395 6.5ZM8.18113 4.33124C8.18109 4.42766 8.20964 4.52193 8.26318 4.60212C8.31671 4.68231 8.39282 4.74482 8.48189 4.78175C8.57095 4.81869 8.66897 4.82838 8.76354 4.80961C8.85812 4.79084 8.945 4.74444 9.0132 4.67629C9.08141 4.60814 9.12787 4.52129 9.14672 4.42674C9.16557 4.33218 9.15595 4.23415 9.11909 4.14506C9.08223 4.05597 9.01978 3.9798 8.93963 3.9262C8.85948 3.87261 8.76524 3.84398 8.66882 3.84394H8.66863C8.53939 3.844 8.41545 3.89535 8.32405 3.98672C8.23264 4.07809 8.18124 4.202 8.18113 4.33124ZM4.85875 9.80678C4.46267 9.78874 4.24739 9.72276 4.10433 9.66703C3.91466 9.59319 3.77933 9.50524 3.63704 9.36315C3.49476 9.22106 3.40668 9.08586 3.33317 8.89619C3.2774 8.75319 3.21142 8.53785 3.19342 8.14177C3.17372 7.71355 3.16979 7.58492 3.16979 6.50003C3.16979 5.41515 3.17405 5.28687 3.19342 4.85829C3.21145 4.46222 3.27792 4.2473 3.33317 4.10387C3.40701 3.9142 3.49495 3.77887 3.63704 3.63659C3.77913 3.4943 3.91433 3.40623 4.10433 3.33271C4.24733 3.27694 4.46267 3.21097 4.85875 3.19296C5.28697 3.17327 5.4156 3.16934 6.5 3.16934C7.58439 3.16934 7.71316 3.17359 8.14174 3.19296C8.53781 3.211 8.75274 3.27746 8.89616 3.33271C9.08583 3.40623 9.22116 3.4945 9.36344 3.63659C9.50573 3.77868 9.59348 3.9142 9.66732 4.10387C9.72309 4.24687 9.78906 4.46222 9.80707 4.85829C9.82676 5.28687 9.8307 5.41515 9.8307 6.50003C9.8307 7.58492 9.82676 7.71319 9.80707 8.14177C9.78903 8.53785 9.72273 8.75313 9.66732 8.89619C9.59348 9.08586 9.50553 9.22119 9.36344 9.36315C9.22135 9.50511 9.08583 9.59319 8.89616 9.66703C8.75316 9.7228 8.53781 9.78877 8.14174 9.80678C7.71352 9.82647 7.58488 9.83041 6.5 9.83041C5.41512 9.83041 5.28684 9.82647 4.85875 9.80678ZM4.82511 2.4621C4.39263 2.4818 4.09711 2.55037 3.83903 2.6508C3.57175 2.75451 3.34548 2.89364 3.11938 3.11938C2.89328 3.34513 2.7545 3.57175 2.6508 3.83903C2.55037 4.09728 2.4818 4.39264 2.4621 4.82511C2.44208 5.25827 2.4375 5.39675 2.4375 6.5C2.4375 7.60325 2.44208 7.74173 2.4621 8.17489C2.4818 8.6074 2.55037 8.90273 2.6508 9.16097C2.7545 9.42809 2.89331 9.65497 3.11938 9.88062C3.34545 10.1063 3.57175 10.2452 3.83903 10.3492C4.0976 10.4496 4.39263 10.5182 4.82511 10.5379C5.2585 10.5576 5.39675 10.5625 6.5 10.5625C7.60324 10.5625 7.74173 10.5579 8.17489 10.5379C8.6074 10.5182 8.90272 10.4496 9.16097 10.3492C9.42809 10.2452 9.65451 10.1064 9.88062 9.88062C10.1067 9.65487 10.2452 9.42809 10.3492 9.16097C10.4496 8.90273 10.5185 8.60737 10.5379 8.17489C10.5576 7.7414 10.5622 7.60325 10.5622 6.5C10.5622 5.39675 10.5576 5.25827 10.5379 4.82511C10.5182 4.3926 10.4496 4.09711 10.3492 3.83903C10.2452 3.57191 10.1064 3.34549 9.88062 3.11938C9.65487 2.89328 9.42809 2.75451 9.16129 2.6508C8.90272 2.55037 8.60736 2.48147 8.17521 2.4621C7.74205 2.44241 7.60357 2.4375 6.50032 2.4375C5.39708 2.4375 5.2585 2.44208 4.82511 2.4621Z" fill="white"/>
<defs>
<linearGradient id="paint0_linear_283_14" x1="12.0521" y1="1.76042" x2="1.21875" y2="11.7812" gradientUnits="userSpaceOnUse">
<stop stop-color="#CF4DB8"/>
<stop offset="0.492424" stop-color="#EB192F"/>
<stop offset="1" stop-color="#FED66D"/>
</linearGradient>
</defs>
</svg>
