<svg width="17" height="17" viewBox="0 0 17 17" fill="none" xmlns="http://www.w3.org/2000/svg">
<path d="M2.12484 1.41666H14.8748C15.0627 1.41666 15.2429 1.49128 15.3757 1.62412C15.5085 1.75696 15.5832 1.93713 15.5832 2.12499C15.5832 2.31285 15.5085 2.49302 15.3757 2.62586C15.2429 2.7587 15.0627 2.83332 14.8748 2.83332H2.12484C1.93698 2.83332 1.75681 2.7587 1.62397 2.62586C1.49113 2.49302 1.4165 2.31285 1.4165 2.12499C1.4165 1.93713 1.49113 1.75696 1.62397 1.62412C1.75681 1.49128 1.93698 1.41666 2.12484 1.41666ZM2.12484 7.08332H14.8748C15.0627 7.08332 15.2429 7.0087 15.3757 6.87586C15.5085 6.74302 15.5832 6.56285 15.5832 6.37499C15.5832 6.18713 15.5085 6.00696 15.3757 5.87412C15.2429 5.74128 15.0627 5.66666 14.8748 5.66666H2.12484C1.93698 5.66666 1.75681 5.74128 1.62397 5.87412C1.49113 6.00696 1.4165 6.18713 1.4165 6.37499C1.4165 6.56285 1.49113 6.74302 1.62397 6.87586C1.75681 7.0087 1.93698 7.08332 2.12484 7.08332ZM2.12484 11.3333H14.8748C15.0627 11.3333 15.2429 11.2587 15.3757 11.1259C15.5085 10.993 15.5832 10.8129 15.5832 10.625C15.5832 10.4371 15.5085 10.257 15.3757 10.1241C15.2429 9.99129 15.0627 9.91666 14.8748 9.91666H2.12484C1.93698 9.91666 1.75681 9.99129 1.62397 10.1241C1.49113 10.257 1.4165 10.4371 1.4165 10.625C1.4165 10.8129 1.49113 10.993 1.62397 11.1259C1.75681 11.2587 1.93698 11.3333 2.12484 11.3333ZM2.12484 15.5833H14.8748C15.0627 15.5833 15.2429 15.5087 15.3757 15.3759C15.5085 15.243 15.5832 15.0629 15.5832 14.875C15.5832 14.6871 15.5085 14.507 15.3757 14.3741C15.2429 14.2413 15.0627 14.1667 14.8748 14.1667H2.12484C1.93698 14.1667 1.75681 14.2413 1.62397 14.3741C1.49113 14.507 1.4165 14.6871 1.4165 14.875C1.4165 15.0629 1.49113 15.243 1.62397 15.3759C1.75681 15.5087 1.93698 15.5833 2.12484 15.5833Z" fill="black"/>
</svg>
