<svg width="50" height="50" viewBox="0 0 50 50" fill="none" xmlns="http://www.w3.org/2000/svg">
<path d="M45.7493 7.21704V42.691C45.7493 43.5021 45.4271 44.2799 44.8536 44.8535C44.2801 45.427 43.5022 45.7491 42.6912 45.7491H7.21716C6.4061 45.7491 5.62826 45.427 5.05476 44.8535C4.48125 44.2799 4.15906 43.5021 4.15906 42.691V7.21704C4.15906 6.40598 4.48125 5.62814 5.05476 5.05463C5.62826 4.48113 6.4061 4.15894 7.21716 4.15894H42.6912C43.5022 4.15894 44.2801 4.48113 44.8536 5.05463C45.4271 5.62814 45.7493 6.40598 45.7493 7.21704V7.21704ZM16.3915 20.0611H10.2753V39.6329H16.3915V20.0611ZM16.9419 13.3332C16.9452 12.8706 16.8572 12.4119 16.6831 11.9832C16.5091 11.5545 16.2523 11.1644 15.9274 10.835C15.6025 10.5056 15.216 10.2434 14.7898 10.0634C14.3636 9.88335 13.9061 9.78905 13.4435 9.78585H13.3334C12.3925 9.78585 11.4902 10.1596 10.825 10.8249C10.1597 11.4901 9.78597 12.3924 9.78597 13.3332C9.78597 14.2741 10.1597 15.1764 10.825 15.8416C11.4902 16.5069 12.3925 16.8806 13.3334 16.8806V16.8806C13.796 16.892 14.2564 16.8121 14.6882 16.6455C15.12 16.4789 15.5147 16.2289 15.8498 15.9097C16.185 15.5905 16.4539 15.2083 16.6413 14.7852C16.8287 14.362 16.9308 13.906 16.9419 13.4433V13.3332ZM39.6331 27.743C39.6331 21.8592 35.8899 19.5718 32.1713 19.5718C30.9537 19.5108 29.7415 19.7701 28.6554 20.3239C27.5693 20.8777 26.6475 21.7065 25.9817 22.7277H25.8104V20.0611H20.0612V39.6329H26.1774V29.2232C26.089 28.157 26.4248 27.0991 27.1119 26.2791C27.7991 25.4591 28.782 24.9434 29.8471 24.844H30.0795C32.0245 24.844 33.4679 26.0672 33.4679 29.1498V39.6329H39.5841L39.6331 27.743Z" stroke="black" stroke-width="2.07951" stroke-linejoin="round"/>
</svg>
