<svg width="13" height="13" viewBox="0 0 13 13" fill="none" xmlns="http://www.w3.org/2000/svg">
<path d="M1.0835 2.16668C1.0835 1.95241 1.14703 1.74296 1.26607 1.56481C1.38511 1.38666 1.5543 1.2478 1.75226 1.16581C1.95021 1.08381 2.16803 1.06236 2.37818 1.10416C2.58832 1.14596 2.78136 1.24914 2.93286 1.40064C3.08437 1.55215 3.18755 1.74518 3.22935 1.95533C3.27115 2.16548 3.24969 2.3833 3.1677 2.58125C3.0857 2.7792 2.94685 2.9484 2.7687 3.06744C2.59054 3.18647 2.38109 3.25001 2.16683 3.25001C1.87951 3.25001 1.60396 3.13587 1.4008 2.93271C1.19763 2.72955 1.0835 2.454 1.0835 2.16668ZM2.16683 7.58334C2.38109 7.58334 2.59054 7.51981 2.7687 7.40077C2.94685 7.28173 3.0857 7.11254 3.1677 6.91458C3.24969 6.71663 3.27115 6.49881 3.22935 6.28866C3.18755 6.07852 3.08437 5.88549 2.93286 5.73398C2.78136 5.58247 2.58832 5.47929 2.37818 5.43749C2.16803 5.39569 1.95021 5.41715 1.75226 5.49914C1.5543 5.58114 1.38511 5.71999 1.26607 5.89814C1.14703 6.0763 1.0835 6.28575 1.0835 6.50001C1.0835 6.78733 1.19763 7.06288 1.4008 7.26604C1.60396 7.46921 1.87951 7.58334 2.16683 7.58334ZM2.16683 11.9167C2.38109 11.9167 2.59054 11.8531 2.7687 11.7341C2.94685 11.6151 3.0857 11.4459 3.1677 11.2479C3.24969 11.05 3.27115 10.8321 3.22935 10.622C3.18755 10.4118 3.08437 10.2188 2.93286 10.0673C2.78136 9.9158 2.58832 9.81263 2.37818 9.77083C2.16803 9.72903 1.95021 9.75048 1.75226 9.83247C1.5543 9.91447 1.38511 10.0533 1.26607 10.2315C1.14703 10.4096 1.0835 10.6191 1.0835 10.8333C1.0835 11.1207 1.19763 11.3962 1.4008 11.5994C1.60396 11.8025 1.87951 11.9167 2.16683 11.9167ZM11.3752 1.62501H5.41683C5.27317 1.62501 5.1354 1.68208 5.03381 1.78366C4.93223 1.88524 4.87516 2.02302 4.87516 2.16668C4.87516 2.31034 4.93223 2.44811 5.03381 2.54969C5.1354 2.65128 5.27317 2.70834 5.41683 2.70834H11.3752C11.5188 2.70834 11.6566 2.65128 11.7582 2.54969C11.8598 2.44811 11.9168 2.31034 11.9168 2.16668C11.9168 2.02302 11.8598 1.88524 11.7582 1.78366C11.6566 1.68208 11.5188 1.62501 11.3752 1.62501ZM11.3752 5.95834H5.41683C5.27317 5.95834 5.1354 6.01541 5.03381 6.11699C4.93223 6.21858 4.87516 6.35635 4.87516 6.50001C4.87516 6.64367 4.93223 6.78144 5.03381 6.88303C5.1354 6.98461 5.27317 7.04168 5.41683 7.04168H11.3752C11.5188 7.04168 11.6566 6.98461 11.7582 6.88303C11.8598 6.78144 11.9168 6.64367 11.9168 6.50001C11.9168 6.35635 11.8598 6.21858 11.7582 6.11699C11.6566 6.01541 11.5188 5.95834 11.3752 5.95834ZM11.3752 10.2917H5.41683C5.27317 10.2917 5.1354 10.3487 5.03381 10.4503C4.93223 10.5519 4.87516 10.6897 4.87516 10.8333C4.87516 10.977 4.93223 11.1148 5.03381 11.2164C5.1354 11.3179 5.27317 11.375 5.41683 11.375H11.3752C11.5188 11.375 11.6566 11.3179 11.7582 11.2164C11.8598 11.1148 11.9168 10.977 11.9168 10.8333C11.9168 10.6897 11.8598 10.5519 11.7582 10.4503C11.6566 10.3487 11.5188 10.2917 11.3752 10.2917Z" fill="#B3B3B3"/>
</svg>
