<svg width="9" height="9" viewBox="0 0 9 9" fill="none" xmlns="http://www.w3.org/2000/svg">
<path d="M4.19156 6.63412L1.53206 2.793C1.49311 2.73671 1.47031 2.67084 1.46613 2.60252C1.46195 2.5342 1.47655 2.46604 1.50835 2.40543C1.54014 2.34481 1.58792 2.29406 1.6465 2.25866C1.70508 2.22326 1.77223 2.20457 1.84068 2.20462L7.15893 2.20462C7.22738 2.20458 7.29453 2.22326 7.35311 2.25866C7.4117 2.29406 7.45947 2.34481 7.49127 2.40543C7.52306 2.46604 7.53766 2.5342 7.53348 2.60252C7.5293 2.67084 7.5065 2.73671 7.46756 2.793L4.80806 6.63412C4.77354 6.68394 4.72747 6.72464 4.67379 6.75276C4.62011 6.78088 4.56041 6.79556 4.49981 6.79556C4.4392 6.79556 4.37951 6.78088 4.32582 6.75276C4.27214 6.72464 4.22607 6.68394 4.19156 6.63412Z" fill="#B3B3B3"/>
</svg>
