<svg width="50" height="50" viewBox="0 0 50 50" fill="none" xmlns="http://www.w3.org/2000/svg">
<path fill-rule="evenodd" clip-rule="evenodd" d="M45.7432 24.954C45.7432 36.4389 36.4329 45.7491 24.9481 45.7491C13.4632 45.7491 4.15295 36.4389 4.15295 24.954C4.15295 13.4692 13.4632 4.15894 24.9481 4.15894C36.4329 4.15894 45.7432 13.4692 45.7432 24.954ZM25.6932 19.5108C23.6706 20.3521 19.6282 22.0933 13.566 24.7345C12.5816 25.126 12.0659 25.509 12.019 25.8834C11.9396 26.5163 12.7322 26.7655 13.8114 27.1048C13.9581 27.151 14.1102 27.1988 14.2662 27.2495C15.3279 27.5946 16.7562 27.9984 17.4987 28.0145C18.1722 28.029 18.9239 27.7513 19.7538 27.1815C25.4179 23.358 28.3418 21.4255 28.5253 21.3838C28.6548 21.3544 28.8343 21.3175 28.9559 21.4255C29.0775 21.5336 29.0655 21.7383 29.0526 21.7932C28.9741 22.1279 25.8632 25.0201 24.2533 26.5168C23.7515 26.9834 23.3955 27.3143 23.3227 27.3899C23.1597 27.5592 22.9935 27.7194 22.8338 27.8734C21.8474 28.8243 21.1077 29.5373 22.8748 30.7018C23.724 31.2614 24.4035 31.7242 25.0814 32.1858C25.8217 32.69 26.5602 33.1928 27.5156 33.8191C27.759 33.9787 27.9914 34.1444 28.2179 34.3058C29.0795 34.9201 29.8535 35.4719 30.8098 35.3839C31.3655 35.3328 31.9395 34.8103 32.231 33.2519C32.9199 29.5691 34.274 21.5895 34.587 18.3013C34.6144 18.0132 34.5799 17.6445 34.5522 17.4827C34.5245 17.3208 34.4666 17.0902 34.2562 16.9195C34.0071 16.7173 33.6224 16.6747 33.4504 16.6776C32.6683 16.6915 31.4683 17.1088 25.6932 19.5108Z" stroke="black" stroke-width="2.07951" stroke-linejoin="round"/>
</svg>
