<svg width="50" height="50" viewBox="0 0 50 50" fill="none" xmlns="http://www.w3.org/2000/svg">
<path d="M45.7493 12.3203C44.2198 12.9981 42.5768 13.456 40.8495 13.663C42.6116 12.6079 43.9634 10.9338 44.6008 8.94089C42.9523 9.91901 41.1261 10.6297 39.1827 11.0107C37.6258 9.35485 35.4094 8.31812 32.955 8.31812C28.2439 8.31812 24.423 12.139 24.423 16.8538C24.423 17.5205 24.4999 18.1689 24.6428 18.7953C17.5487 18.4382 11.2642 15.0404 7.05495 9.87871C6.32228 11.1426 5.90099 12.6079 5.90099 14.1685C5.90099 17.1285 7.40846 19.7423 9.69624 21.2718C8.29683 21.226 6.98168 20.8432 5.83139 20.2039V20.3138C5.83139 24.4479 8.77124 27.897 12.6764 28.6809C11.9584 28.8751 11.2055 28.9777 10.4289 28.9777C9.87941 28.9777 9.34272 28.9264 8.82252 28.8275C9.90871 32.2161 13.0592 34.6852 16.794 34.7511C13.8725 37.0408 10.1926 38.4054 6.19589 38.4054C5.50718 38.4054 4.82762 38.3651 4.15906 38.2863C7.93599 40.7096 12.42 42.12 17.2373 42.12C32.9348 42.12 41.5163 29.1187 41.5163 17.8429C41.5163 17.4765 41.5071 17.1065 41.4906 16.7402C43.1574 15.5349 44.6045 14.0348 45.7456 12.3258L45.7493 12.3203Z" stroke="black" stroke-width="2.07951" stroke-linejoin="round"/>
</svg>
