<svg width="50" height="50" viewBox="0 0 50 50" fill="none" xmlns="http://www.w3.org/2000/svg">
<path d="M14.7615 39.4457H14.7533C4.99752 36.7001 5.13561 26.5788 5.24933 21.1769C5.36306 15.7751 6.41094 11.413 9.38399 8.43991C14.729 3.53357 25.7033 4.19154 25.7033 4.19154C35.0123 4.23215 39.1876 7.26207 40.2192 8.21247C43.6472 11.1936 45.548 17.7896 44.2645 28.2359C43.0298 38.3572 35.4022 39.332 34.0538 39.7707C33.4689 39.9575 28.3433 41.2409 21.6661 40.6805M15.9231 36.7245C15.9231 36.7245 15.8906 43.1255 15.8906 43.686C15.8825 44.5389 16.3536 44.5795 16.7841 44.149C18.1001 42.8249 22.3241 37.7318 22.3241 37.7318C27.9859 38.0973 32.4942 36.9763 32.9816 36.822C34.1188 36.4564 40.3005 35.9203 41.3483 27.4723C42.4287 18.7562 40.9503 12.8101 38.0504 10.3245C37.1731 9.52841 33.404 7.15647 25.5327 7.12397C25.5327 7.12397 16.2155 6.51474 11.6909 10.6169C9.17279 13.1026 8.31986 16.7986 8.23051 21.3069C8.14115 25.8152 7.65377 34.4338 15.9231 36.7245ZM15.9231 36.7245C15.9149 36.7245 15.9149 36.7245 15.9231 36.7245ZM30.0572 20.9089C29.9435 18.5775 28.6844 17.2778 26.4181 17.156M25.622 14.3373C30.3334 14.6784 32.8435 17.9196 32.7541 21.8511M35.5241 22.9153C35.4672 15.7832 30.6502 11.6485 24.6635 11.6079M34.6062 30.884V30.9003C33.7289 32.4436 32.088 34.1495 30.3984 33.6052L30.3822 33.5809C28.6682 33.1016 24.631 31.0221 22.0804 28.9913C20.7644 27.9516 19.5622 26.725 18.6362 25.5471C17.7995 24.4993 16.9547 23.2564 16.1343 21.7618C14.4041 18.6344 14.0223 17.2372 14.0223 17.2372C13.478 15.5476 15.1757 13.9068 16.7273 13.0295H16.7435C17.4908 12.6395 18.2057 12.7695 18.6849 13.3463C18.6849 13.3463 19.6922 14.5485 20.1227 15.1415C20.5289 15.6938 21.0731 16.5792 21.3574 17.0748C21.8529 17.9602 21.5442 18.8618 21.0569 19.2355L20.0821 20.0153C19.5866 20.4133 19.6516 21.1525 19.6516 21.1525C19.6516 21.1525 21.0975 26.6194 26.4993 28.0003C26.4993 28.0003 27.2385 28.0653 27.6366 27.5698L28.4164 26.595C28.79 26.1076 29.6917 25.799 30.5771 26.2945C31.7712 26.9687 33.2902 28.0166 34.2975 28.967C34.8661 29.43 34.9961 30.1367 34.6062 30.884Z" stroke="black" stroke-width="2.07951" stroke-linecap="round" stroke-linejoin="round"/>
</svg>
