<svg width="50" height="50" viewBox="0 0 50 50" fill="none" xmlns="http://www.w3.org/2000/svg">
<path d="M33.0546 18.0314C32.8353 15.6862 32.0057 13.7033 30.6528 11.9366C26.9069 7.0457 19.9838 4.99311 13.8235 7.00535C9.3101 8.47978 5.98846 11.3082 4.63586 15.9721C3.17387 21.0136 5.12744 25.9104 9.76198 29.1825C10.4838 29.6929 10.593 30.1288 10.3572 30.9123C10.0365 31.9784 9.85542 33.0867 9.57558 34.3524C11.1007 33.3991 12.3875 32.544 13.7297 31.7866C14.1341 31.5584 14.7006 31.5013 15.178 31.5415C16.5602 31.6579 17.9347 31.8636 19.4437 32.0506M24.5566 14.6793C23.6041 14.6968 22.7992 15.5083 22.8161 16.4339C22.8334 17.3934 23.623 18.1441 24.6025 18.1325C25.5846 18.1205 26.3294 17.362 26.3199 16.3821C26.312 15.4203 25.5259 14.6616 24.5566 14.6793ZM15.2861 16.4605C15.3216 15.5384 14.5226 14.7079 13.5736 14.6799C12.6019 14.6514 11.8028 15.394 11.7744 16.3516C11.7457 17.322 12.4879 18.0995 13.4666 18.1244C14.4369 18.1491 15.2502 17.4054 15.2861 16.4605ZM36.7833 25.7533C36.0281 25.7481 35.3865 26.3663 35.3556 27.1292C35.3229 27.9451 35.9572 28.6151 36.7645 28.6172C37.5456 28.6198 38.1627 28.0292 38.1912 27.252C38.2214 26.4342 37.5871 25.7589 36.7833 25.7533ZM27.8125 28.6269C28.591 28.6277 29.2316 28.0186 29.2611 27.2501C29.2922 26.4361 28.6377 25.7537 27.8227 25.7502C27.0161 25.7465 26.3399 26.4388 26.3681 27.2404C26.3946 28.0065 27.0399 28.6261 27.8125 28.6269ZM41.7283 42.1002C40.5058 41.5558 39.3844 40.7391 38.1906 40.6145C37.0013 40.4902 35.7509 41.1764 34.5065 41.3036C30.7164 41.6914 27.3206 40.635 24.5207 38.0459C19.1956 33.1204 19.9565 25.5684 26.1174 21.5319C31.5931 17.9447 39.6234 19.1405 43.484 24.1182C46.853 28.4614 46.4569 34.2271 42.3442 37.8759C41.1541 38.932 40.7258 39.8011 41.4894 41.1931C41.6304 41.4501 41.6465 41.7756 41.7283 42.1002Z" stroke="black" stroke-width="2.07951" stroke-linejoin="round"/>
</svg>
