<svg width="50" height="50" viewBox="0 0 50 50" fill="none" xmlns="http://www.w3.org/2000/svg">
<path fill-rule="evenodd" clip-rule="evenodd" d="M42.8274 9.27468C44.797 9.80191 46.3449 11.3497 46.8721 13.3194C47.8249 16.8857 47.8287 24.3311 47.8287 24.3311C47.8287 24.3311 47.8287 31.7765 46.8721 35.3429C46.3449 37.3125 44.797 38.8603 42.8274 39.3875C39.2611 40.3441 24.954 40.3441 24.954 40.3441C24.954 40.3441 10.6471 40.3441 7.08069 39.3875C5.11109 38.8603 3.56327 37.3125 3.03603 35.3429C2.07947 31.7765 2.07947 24.3311 2.07947 24.3311C2.07947 24.3311 2.07947 16.8857 3.03603 13.3194C3.56327 11.3497 5.11109 9.80191 7.08069 9.27468C10.6471 8.31812 24.954 8.31812 24.954 8.31812C24.954 8.31812 39.2611 8.31812 42.8274 9.27468ZM32.2602 24.3317L20.3748 31.1933V17.4701L32.2602 24.3317Z" stroke="black" stroke-width="2.07951" stroke-linejoin="round"/>
</svg>
